<?xml version="1.0" standalone="no"?>
<!DOCTYPE svg PUBLIC "-//W3C//DTD SVG 20010904//EN"
 "http://www.w3.org/TR/2001/REC-SVG-20010904/DTD/svg10.dtd">
<svg version="1.0" xmlns="http://www.w3.org/2000/svg"
 width="180.000000pt" height="180.000000pt" viewBox="0 0 180.000000 180.000000"
 preserveAspectRatio="xMidYMid meet">

<g transform="translate(0.000000,180.000000) scale(0.100000,-0.100000)"
fill="#FFFFFF" stroke="none">
<path d="M852 974 c-33 -23 -45 -60 -31 -101 6 -18 19 -38 29 -43 27 -15 32
-12 20 9 -5 11 -10 41 -10 66 0 25 5 55 10 66 13 23 11 23 -18 3z"/>
<path d="M943 941 c8 -29 8 -50 -1 -77 -15 -49 -6 -56 24 -21 33 39 29 104
-10 129 -21 14 -23 8 -13 -31z"/>
</g>
</svg>
